<?xml version="1.0" encoding="UTF-8" standalone="no"?>
<svg width="58px" height="60px" viewBox="0 0 58 60" version="1.1" xmlns="http://www.w3.org/2000/svg" xmlns:xlink="http://www.w3.org/1999/xlink">
    <!-- Generator: Sketch 46.2 (44496) - http://www.bohemiancoding.com/sketch -->
    <title>svg2</title>
    <desc>Created with Sketch.</desc>
    <defs>
        <path d="M13.6087582,51.2717928 L12.1595395,51.2717928 L11.2806332,56.3421053 L10.5814145,56.3421053 L11.4603207,51.2717928 L10.011102,51.2717928 L10.120477,50.6546053 L13.7181332,50.6546053 L13.6087582,51.2717928 Z M15.7565707,54.8577303 L13.8971957,54.8577303 L13.2096957,56.3421053 L12.4675082,56.3421053 L15.229227,50.6546053 L15.8307895,50.6546053 L16.6237582,56.3421053 L15.932352,56.3421053 L15.7565707,54.8577303 Z M14.1862582,54.2405428 L15.682352,54.2405428 L15.3815707,51.6624178 L14.1862582,54.2405428 Z M19.7403207,54.8772615 C19.75855,54.7236149 19.7494355,54.5914548 19.7129769,54.4807771 C19.6765184,54.3700995 19.6198784,54.2737463 19.5430551,54.1917146 C19.4662318,54.109683 19.3731337,54.0387201 19.2637582,53.978824 C19.1543826,53.9189279 19.0358942,53.8616368 18.9082894,53.806949 C18.7233927,53.7288236 18.5508684,53.6396318 18.3907113,53.5393709 C18.2305543,53.43911 18.0918838,53.3225747 17.9746957,53.1897615 C17.8575076,53.0569483 17.7683158,52.9052572 17.7071176,52.7346834 C17.6459193,52.5641096 17.6231331,52.3707522 17.6387582,52.1546053 C17.6543833,51.9202291 17.7116744,51.7053875 17.8106332,51.510074 C17.909592,51.3147605 18.0378459,51.1474445 18.1953988,51.0081209 C18.3529517,50.8687973 18.5345905,50.7607254 18.7403207,50.6839021 C18.9460509,50.6070788 19.1661008,50.5712719 19.4004769,50.5764803 C19.6452698,50.5816886 19.8607625,50.6311673 20.0469613,50.7249178 C20.2331602,50.8186682 20.3881065,50.943667 20.5118051,51.0999178 C20.6355036,51.2561685 20.7266485,51.4378074 20.7852426,51.6448396 C20.8438366,51.8518719 20.8666228,52.0699687 20.8536019,52.2991365 L20.1504769,52.2991365 C20.1608937,52.1585108 20.1563364,52.0217934 20.1368051,51.8889803 C20.1172737,51.7561671 20.0775606,51.6389808 20.0176644,51.5374178 C19.9577683,51.4358548 19.8744358,51.3538243 19.7676644,51.291324 C19.6608931,51.2288237 19.5267798,51.1962719 19.3653207,51.1936678 C19.2194866,51.1910636 19.0873265,51.2125477 18.9688363,51.2581209 C18.8503461,51.303694 18.7468316,51.3687975 18.6582894,51.4534334 C18.5697473,51.5380692 18.4987845,51.6389797 18.4453988,51.7561678 C18.3920131,51.8733558 18.3575083,52.0022608 18.3418832,52.1428865 C18.3262581,52.2783039 18.3399299,52.3987454 18.3828988,52.5042146 C18.4258678,52.6096839 18.4864141,52.7021309 18.5645394,52.7815584 C18.6426648,52.8609859 18.7338098,52.9306466 18.8379769,52.9905428 C18.9421441,53.0504389 19.050216,53.1038238 19.1621957,53.150699 C19.3601134,53.2340328 19.5417522,53.3264798 19.7071176,53.4280428 C19.872483,53.5296058 20.0131066,53.6487452 20.1289926,53.7854646 C20.2448786,53.9221841 20.3308152,54.0790835 20.3868051,54.2561678 C20.4427949,54.433252 20.461675,54.637677 20.4434457,54.869449 C20.4252164,55.1116377 20.3653212,55.3297345 20.2637582,55.5237459 C20.1621952,55.7177573 20.0313371,55.8818181 19.8711801,56.0159334 C19.711023,56.1500486 19.525478,56.2522612 19.3145394,56.322574 C19.1036009,56.3928869 18.8796448,56.4254386 18.6426644,56.4202303 C18.3952674,56.4150219 18.1732644,56.3668453 17.9766488,56.275699 C17.7800333,56.1845527 17.6133683,56.0621581 17.4766488,55.9085115 C17.3399294,55.7548649 17.2370658,55.5738771 17.1680551,55.3655428 C17.0990443,55.1572084 17.0710498,54.9332523 17.0840707,54.6936678 L17.7871957,54.6936678 C17.776779,54.8473144 17.7858935,54.9911931 17.8145394,55.1253084 C17.8431854,55.2594236 17.8933151,55.37661 17.9649301,55.4768709 C18.036545,55.5771318 18.1309451,55.6565581 18.2481332,55.7151521 C18.3653213,55.7737462 18.5072469,55.8043448 18.6739144,55.806949 C18.8197485,55.8095532 18.9545128,55.7900221 19.0782113,55.7483553 C19.2019099,55.7066884 19.3099817,55.6454911 19.4024301,55.5647615 C19.4948784,55.4840319 19.5703985,55.3857256 19.6289926,55.2698396 C19.6875866,55.1539536 19.7246956,55.0230956 19.7403207,54.8772615 Z M18.8262582,56.3421053 L18.7520394,56.556949 C18.8249565,56.5777825 18.8855027,56.6096832 18.9336801,56.6526521 C18.9818574,56.6956211 19.0209195,56.7450998 19.0508676,56.8010896 C19.0808156,56.8570795 19.1016488,56.9189278 19.1133676,56.9866365 C19.1250864,57.0543452 19.1296436,57.1233549 19.1270394,57.1936678 C19.1218311,57.3499185 19.0866752,57.4814276 19.0215707,57.588199 C18.9564662,57.6949704 18.8724827,57.7815581 18.7696176,57.8479646 C18.6667525,57.9143712 18.5502172,57.9631989 18.4200082,57.994449 C18.2897992,58.0256992 18.156988,58.0439282 18.0215707,58.0491365 L18.0411019,57.6272615 C18.1062064,57.6220532 18.1706589,57.6116366 18.2344613,57.5960115 C18.2982637,57.5803864 18.3562059,57.5562981 18.4082894,57.5237459 C18.460373,57.4911936 18.5039924,57.4495274 18.5391488,57.3987459 C18.5743052,57.3479644 18.5970915,57.284814 18.6075082,57.2092928 C18.6179249,57.1389799 18.6120656,57.0829909 18.5899301,57.041324 C18.5677945,56.9996571 18.5358938,56.9671054 18.4942269,56.9436678 C18.4525601,56.9202301 18.4037324,56.9033032 18.3477426,56.8928865 C18.2917527,56.8824698 18.2364147,56.8733553 18.1817269,56.8655428 L18.3457894,56.3421053 L18.8262582,56.3421053 Z M21.4896957,56.3421053 L20.7904769,56.3421053 L21.7787582,50.6546053 L22.4779769,50.6546053 L21.4896957,56.3421053 Z M24.2546957,50.6546053 L24.8875082,55.2874178 L27.1296957,50.6546053 L28.0437582,50.6546053 L27.0554769,56.3421053 L26.3562582,56.3421053 L26.7468832,54.0921053 L27.1804769,51.978824 L24.9968832,56.3421053 L24.4617269,56.3421053 L23.7898519,51.8889803 L23.4578207,54.1624178 L23.0828207,56.3421053 L22.3836019,56.3421053 L23.3679769,50.6546053 L24.2546957,50.6546053 Z M30.8400082,54.8577303 L28.9806332,54.8577303 L28.2931332,56.3421053 L27.5509457,56.3421053 L30.3126644,50.6546053 L30.9142269,50.6546053 L31.7071957,56.3421053 L31.0157894,56.3421053 L30.8400082,54.8577303 Z M29.2696957,54.2405428 L30.7657894,54.2405428 L30.4650082,51.6624178 L29.2696957,54.2405428 Z M35.8511019,54.5335115 C35.8120392,54.8069504 35.7397743,55.0608541 35.634305,55.2952303 C35.5288357,55.5296064 35.3921184,55.7314273 35.2241488,55.900699 C35.0561792,56.0699707 34.8569624,56.2008288 34.6264925,56.2932771 C34.3960226,56.3857255 34.1336554,56.4280428 33.8393831,56.4202303 C33.6258404,56.4150219 33.4383423,56.3766108 33.2768831,56.3049959 C33.115424,56.2333809 32.9774045,56.1389808 32.8628206,56.0217928 C32.7482367,55.9046047 32.6544877,55.7672363 32.5815706,55.6096834 C32.5086536,55.4521305 32.4539667,55.2861166 32.4175081,55.1116365 C32.3810496,54.9371565 32.3615186,54.7568197 32.3589144,54.5706209 C32.3563102,54.384422 32.3667268,54.2027832 32.3901644,54.025699 L32.5542269,52.9749178 C32.585477,52.7770001 32.6303985,52.5790854 32.6889925,52.3811678 C32.7475866,52.1832501 32.8211535,51.9944499 32.9096956,51.8147615 C32.9982377,51.6350731 33.1037054,51.4684081 33.2261019,51.3147615 C33.3484983,51.1611149 33.4871688,51.0289548 33.6421175,50.9182771 C33.7970662,50.8075995 33.9695905,50.7216629 34.1596956,50.6604646 C34.3498008,50.5992664 34.5594341,50.5712719 34.7886019,50.5764803 C35.0672491,50.5816886 35.3016218,50.6370266 35.4917269,50.7424959 C35.681832,50.8479652 35.8341742,50.9879377 35.9487581,51.1624178 C36.063342,51.3368978 36.1434194,51.5380677 36.1889925,51.7659334 C36.2345657,51.9937991 36.2521436,52.2340311 36.2417269,52.4866365 L35.5386019,52.4827303 C35.5438102,52.3290837 35.5405551,52.1767414 35.5288363,52.025699 C35.5171175,51.8746566 35.4839147,51.7379392 35.4292269,51.6155428 C35.3745391,51.4931463 35.2938108,51.3928869 35.1870394,51.3147615 C35.080268,51.2366361 34.9331341,51.1949699 34.7456331,51.1897615 C34.5815698,51.1845532 34.4344359,51.2060373 34.3042269,51.2542146 C34.1740179,51.302392 34.0568316,51.3694486 33.9526644,51.4553865 C33.8484972,51.5413244 33.7580033,51.643537 33.68118,51.7620271 C33.6043567,51.8805173 33.5386022,52.0061671 33.4839144,52.1389803 C33.4292266,52.2717934 33.3836542,52.4091618 33.3471956,52.5510896 C33.3107371,52.6930174 33.2820916,52.8316879 33.2612581,52.9671053 L33.0971956,54.0296053 C33.0815706,54.1389808 33.0692009,54.2581202 33.0600863,54.3870271 C33.0509716,54.515934 33.0503206,54.64549 33.0581331,54.775699 C33.0659457,54.905908 33.0848257,55.0322088 33.1147738,55.1546053 C33.1447218,55.2770017 33.1915964,55.3857246 33.2553988,55.4807771 C33.3192012,55.5758297 33.4012316,55.6539539 33.5014925,55.7151521 C33.6017534,55.7763504 33.7274032,55.8095532 33.8784456,55.8147615 C34.08678,55.8225741 34.2638616,55.7952306 34.4096956,55.7327303 C34.5555297,55.67023 34.6779243,55.5810381 34.7768831,55.4651521 C34.875842,55.3492661 34.9552683,55.2118977 35.0151644,55.0530428 C35.0750605,54.8941878 35.1245392,54.7236166 35.1636019,54.541324 L35.8511019,54.5335115 Z M36.9090706,56.3421053 L36.2098519,56.3421053 L37.1981331,50.6546053 L37.8973519,50.6546053 L36.9090706,56.3421053 Z M38.6115706,55.728824 L40.7756331,55.728824 L40.6662581,56.3421053 L37.8029769,56.3421053 L38.7873519,50.6546053 L39.4904769,50.6546053 L38.6115706,55.728824 Z M41.8961018,56.3421053 L41.1968831,56.3421053 L42.1851643,50.6546053 L42.8843831,50.6546053 L41.8961018,56.3421053 Z M44.5087581,53.728824 L43.8173518,54.431949 L43.4892268,56.3421053 L42.7900081,56.3421053 L43.7743831,50.6546053 L44.4736018,50.6546053 L44.0009456,53.3577303 L44.5634456,52.744449 L46.3837581,50.6546053 L47.2743831,50.6546053 L45.0126643,53.197574 L46.3798518,56.3421053 L45.5907893,56.3421053 L44.5087581,53.728824 Z" id="path-1"></path>
        <filter x="-5.4%" y="-13.4%" width="110.7%" height="153.5%" filterUnits="objectBoundingBox" id="filter-2">
            <feOffset dx="0" dy="1" in="SourceAlpha" result="shadowOffsetOuter1"></feOffset>
            <feGaussianBlur stdDeviation="0.5" in="shadowOffsetOuter1" result="shadowBlurOuter1"></feGaussianBlur>
            <feColorMatrix values="0 0 0 0 0   0 0 0 0 0   0 0 0 0 0  0 0 0 0.5 0" type="matrix" in="shadowBlurOuter1"></feColorMatrix>
        </filter>
    </defs>
    <g id="Page-1" stroke="none" stroke-width="1" fill="none" fill-rule="evenodd">
        <g id="Varsayimlar" transform="translate(-15.000000, -3.000000)">
            <g id="svg2" transform="translate(15.000000, 3.000000)">
                <path d="M26.8113959,46.4582549 C26.3996658,47.4414872 25.7820852,48.1928403 24.9586531,48.712318 C24.1352042,49.2317993 23.1706681,49.4915381 22.0650428,49.4915381 C20.820624,49.4915381 19.8479927,49.1691022 19.1471454,48.5242303 C18.446293,47.8793622 18.0958681,46.9438998 18.0958699,45.7178469 C18.0958681,44.7226795 18.3306413,43.8120958 18.8001896,42.9860994 C19.2697339,42.1601141 19.9208535,41.5281784 20.7535499,41.0902961 C21.586239,40.6524284 22.4929488,40.4334928 23.4736826,40.4334818 C24.5746807,40.4334928 25.4651997,40.6872585 26.1452414,41.19479 C26.8252644,41.7023362 27.2254192,42.3939806 27.345708,43.2697269 L26.0541091,43.3774054 L26.0541064,43.3773726 C25.6519618,43.4108987 25.2690772,43.1994236 25.0833134,42.8411834 C24.9540389,42.5918811 24.8257464,42.4212483 24.6984361,42.3292851 C24.3815425,42.1004017 23.9594134,41.9859599 23.432048,41.9859526 C22.8537826,41.9859599 22.3136886,42.1372264 21.8117652,42.4397485 C21.3098312,42.7422888 20.9085194,43.2149939 20.6078287,43.857871 C20.3071304,44.5007555 20.156783,45.1426389 20.1567863,45.7835287 C20.156783,46.4841346 20.3522345,47.0255061 20.7431415,47.4076471 C21.1340404,47.7897954 21.6209343,47.9808677 22.2038251,47.9808677 C22.7450699,47.9808677 23.2412157,47.8296049 23.6922647,47.5270682 C23.9060706,47.383659 24.1380057,47.115802 24.3880701,46.7234974 L24.3880295,46.7234715 C24.5966082,46.3962502 24.9756526,46.2192289 25.3604493,46.269332 L26.8113959,46.4582549 Z M11.1270086,48.7179277 L12.7527525,42.0456614 L9.76893395,42.0456614 L10.030313,40.9651922 L10.030313,40.9651922 C10.0845943,40.7408082 10.2854386,40.5827573 10.5162949,40.5827573 L18.1375045,40.5827573 L17.8761255,41.6632265 L17.8761255,41.6632265 C17.8218442,41.8876105 17.6209999,42.0456614 17.3901436,42.0456614 L14.8414259,42.0456614 L13.071952,49.3362932 L11.6127962,49.3362932 L11.6127962,49.3362932 C11.3366538,49.3362932 11.1127962,49.1124356 11.1127962,48.8362932 C11.1127962,48.7964124 11.1175676,48.7566749 11.1270086,48.7179277 Z M30.1603695,40.5827573 L32.5084085,40.5827573 C33.2717045,40.5827682 33.7597551,40.5927197 33.9725613,40.6126153 C34.3935269,40.64845 34.7693941,40.7220923 35.1001667,40.833542 C35.4309248,40.94501 35.7316165,41.1012522 36.002253,41.3022687 C36.2728676,41.5032998 36.5064856,41.7451267 36.7031036,42.0277495 C36.8996996,42.3103869 37.0512036,42.6358075 37.1576155,43.0040113 C37.2640054,43.3722298 37.3172041,43.7752783 37.317215,44.213146 C37.3172041,45.1565761 37.1078728,45.9935139 36.6892249,46.7239632 C36.270555,47.4544233 35.7443408,48.0346107 35.1105749,48.4645216 C34.6248306,48.7989 33.9979978,49.0457027 33.2300761,49.2049259 C32.7952194,49.2925053 32.126752,49.3362932 31.2246723,49.3362932 L28.2734269,49.3362932 L28.2734269,49.3362932 C27.9972845,49.3362932 27.7734269,49.1124356 27.7734269,48.8362932 C27.7734269,48.7964584 27.7781872,48.7567664 27.7876067,48.7180614 L29.6745493,40.9645254 L29.6745493,40.9645254 C29.7290779,40.740465 29.9297693,40.5827573 30.1603695,40.5827573 Z M31.134464,47.9271284 C31.9023876,47.9271284 32.4586728,47.8863253 32.8033209,47.8047226 C33.1479572,47.7231199 33.4636865,47.5708598 33.7505098,47.3479384 C34.1622235,47.0255061 34.5091785,46.5955916 34.7913757,46.0581947 C35.0735601,45.5208052 35.214656,44.8878759 35.2146633,44.1594067 C35.214656,43.5384271 35.0978469,43.0716915 34.8642362,42.7592033 C34.630613,42.4467225 34.34264,42.238732 34.000318,42.1352281 C33.7597551,42.0635842 33.331844,42.0277568 32.7165817,42.0277495 L31.5022372,42.0277495 L30.0727797,47.9271284 L31.134464,47.9271284 Z M40.4302563,40.5827573 L42.7782952,40.5827573 C43.5415945,40.5827682 44.0296432,40.5927197 44.2424524,40.6126153 C44.6634128,40.64845 45.0392848,40.7220923 45.3700538,40.833542 C45.7008118,40.94501 46.0015036,41.1012522 46.2721401,41.3022687 C46.5427546,41.5032998 46.7763727,41.7451267 46.9729907,42.0277495 C47.1695867,42.3103869 47.3210907,42.6358075 47.4274989,43.0040113 C47.5338925,43.3722298 47.5870911,43.7752783 47.5871021,44.213146 C47.5870911,45.1565761 47.3777599,45.9935139 46.959112,46.7239632 C46.5404421,47.4544233 46.0142279,48.0346107 45.3804656,48.4645216 C44.8947184,48.7989 44.2678827,49.0457027 43.499962,49.2049259 C43.0651046,49.2925053 42.3966401,49.3362932 41.4945575,49.3362932 L38.5433159,49.3362932 L38.5433159,49.3362932 C38.2671736,49.3362932 38.0433159,49.1124356 38.0433159,48.8362932 C38.0433159,48.7964585 38.0480763,48.7567665 38.0574957,48.7180615 L39.9444361,40.9645256 L39.9444361,40.9645256 C39.9989646,40.740465 40.199656,40.5827573 40.4302563,40.5827573 Z M41.4043515,47.9271284 C42.1722721,47.9271284 42.7285599,47.8863253 43.0732076,47.8047226 C43.4178443,47.7231199 43.7335728,47.5708598 44.0203968,47.3479384 C44.4321109,47.0255061 44.7790638,46.5955916 45.0612628,46.0581947 C45.3434472,45.5208052 45.484543,44.8878759 45.4845503,44.1594067 C45.484543,43.5384271 45.3677303,43.0716915 45.1341232,42.7592033 C44.9005015,42.4467225 44.6125267,42.238732 44.2702025,42.1352281 C44.0296432,42.0635842 43.6017307,42.0277568 42.9864684,42.0277495 L41.7721242,42.0277495 L40.3426656,47.9271284 L41.4043515,47.9271284 Z" id="text2399" fill="#F2F2F2"></path>
                <g id="TAŞIMACILIK">
                    <use fill="black" fill-opacity="1" filter="url(#filter-2)" xlink:href="#path-1"></use>
                    <use fill="#F9F9F9" fill-rule="evenodd" xlink:href="#path-1"></use>
                </g>
                <polygon id="path69" fill="#F2F2F2" points="28.6209365 2.53444272 25.5841718 0.410990712 26.7828947 3.91582817 23.8260449 6.15344427 27.5363777 6.08494582 28.7351006 9.58978328 29.8196594 6.05069659 33.5299923 5.98219814 30.4932276 3.84732972 31.5777864 0.308243034"></polygon>
                <path d="M0.068498452,16.4396285 L1.66679567,18.0493421 L14.9440789,18.0493421 C15.1311258,17.4974521 15.3556315,16.9611739 15.6062307,16.4396285 L14.1563467,16.4396285 L0.068498452,16.4396285 L0.068498452,16.4396285 Z M17.9123452,16.4396285 C17.7722485,16.96365 17.6753172,17.5006264 17.6041022,18.0493421 L18.6087461,18.0493421 L19.8645511,18.0493421 L20.3668731,18.9169892 L19.1110681,18.9169892 L17.5127709,18.9169892 C17.4802321,19.4593511 17.4854084,20.0040026 17.5241873,20.560952 L19.8417183,20.560952 L21.3258514,20.560952 L21.8053406,21.4171827 L20.3897059,21.4171827 L17.6155186,21.4171827 C17.6930745,21.9849336 17.7986655,22.5355644 17.9465944,23.0725619 L18.0835913,23.0725619 L21.7140093,23.0725619 L22.7643189,23.0725619 L23.2666409,23.9287926 L22.2391641,23.9287926 L18.5859133,23.9287926 L18.2091718,23.9287926 C18.4132673,24.505673 18.6598427,25.0549407 18.939822,25.5841718 L19.5677245,25.5841718 L24.2256192,25.5841718 L26.2577399,25.5841718 L27.3308824,25.5841718 L27.8332043,26.0864938 L27.8332043,26.8628096 L27.8560372,29.5228328 C27.8572376,29.8468411 28.1572049,30.1309255 28.4268576,30.310565 C28.7497005,30.5256392 28.9845391,30.6133874 29.1575077,30.6302245 C29.2604819,30.6402482 29.3616989,30.6326181 29.4543344,30.5959752 L29.4543344,26.0522446 L27.2395511,23.8374613 L26.2120743,23.8374613 L26.0522446,23.8374613 L25.9380805,23.8374613 L21.6683437,16.4396285 L18.9512384,16.4396285 L17.9123452,16.4396285 L17.9123452,16.4396285 Z M35.6420279,16.4396285 L30.8928019,24.6594427 L30.869969,24.6594427 L30.8243034,24.6594427 L30.755805,24.6594427 L29.4543344,23.3693885 L29.4543344,22.9583978 L29.4543344,21.7710913 L29.4543344,20.1385449 L29.4543344,19.9216331 C29.4532395,19.5942759 29.155863,19.3041154 28.8835139,19.1224845 C28.5606754,18.907182 28.3029685,18.8305039 28.130031,18.8142415 C27.9594968,18.7982052 27.9263136,18.82057 27.8332043,18.8370743 L27.8332043,21.7140093 L27.8332043,21.7596749 L27.8332043,22.8556502 L27.8332043,23.4150542 L29.3401703,24.9106037 L30.0251548,25.6070046 L36.1900155,25.5955882 L36.2128483,25.5955882 L38.1079721,25.5955882 L38.7587074,25.5955882 C39.030681,25.0601718 39.2741994,24.5078577 39.4665248,23.9287926 L38.998452,23.9287926 L34.8428793,23.9287926 L34.0893963,23.9287926 L34.5688854,23.0725619 L35.3680341,23.0725619 L39.4322755,23.0725619 L39.7062693,23.0725619 C39.8429886,22.5332961 39.9506682,21.9817538 40.0145124,21.4171827 L36.3270124,21.4171827 L35.5278638,21.4171827 L36.0301858,20.560952 L36.875,20.560952 L40.0830108,20.560952 C40.1070785,20.019838 40.095757,19.4720794 40.0487616,18.9169892 L37.8111455,18.9169892 L36.9891641,18.9169892 L37.4686533,18.0493421 L38.3363003,18.0493421 L39.9460139,18.0493421 C39.8613535,17.4965117 39.7438175,16.9623857 39.5921053,16.4396285 L38.4047988,16.4396285 L35.6420279,16.4396285 L35.6420279,16.4396285 Z M41.7498065,16.4396285 C41.9979828,16.9589297 42.2144562,17.4958286 42.4005418,18.0493421 L55.6892415,18.0493421 L57.2875387,16.4396285 L42.9485294,16.4396285 L41.7498065,16.4396285 L41.7498065,16.4396285 Z M2.53444272,18.9169892 L4.17840557,20.560952 L14.3504257,20.560952 C14.4324342,20.0033432 14.5479741,19.4541069 14.692918,18.9169892 L2.53444272,18.9169892 L2.53444272,18.9169892 Z M42.6631192,18.9169892 C42.8068819,19.4544631 42.9235302,19.9981969 43.0056115,20.560952 L53.1776316,20.560952 L54.8215944,18.9169892 L42.6631192,18.9169892 L42.6631192,18.9169892 Z M5.04605263,21.4171827 L6.69001548,23.0725619 L14.190596,23.0725619 C14.1743971,22.517891 14.2013935,21.9590774 14.247678,21.4171827 L5.04605263,21.4171827 L5.04605263,21.4171827 Z M43.1083591,21.4171827 C43.1564651,21.9749504 43.1694817,22.5254858 43.1540248,23.0725619 L50.6660217,23.0725619 L52.3099845,21.4171827 L43.1083591,21.4171827 L43.1083591,21.4171827 Z M7.55766254,23.9287926 L9.20162539,25.5841718 L14.4874226,25.5841718 C14.3920446,25.1212005 14.3209801,24.6484008 14.2705108,24.1685372 C14.2620105,24.0877265 14.2548114,24.0094246 14.247678,23.9287926 L7.55766254,23.9287926 L7.55766254,23.9287926 Z M43.1083591,23.9287926 C43.0587078,24.4921198 42.9822453,25.0503333 42.8686146,25.5955882 L48.1544118,25.5841718 L49.7983746,23.9287926 L43.1083591,23.9287926 L43.1083591,23.9287926 Z" id="path2438" fill="#F2F2F2"></path>
                <path d="M36.4865681,10.8455882 C38.5394247,12.8135868 39.9826122,15.4959105 40.311065,18.6201625 C41.0192879,25.3528849 36.4369277,31.3659303 30.0705472,32.0344427 C23.7046225,32.7034198 17.9805141,27.7731686 17.2727531,21.0404412 C16.8651562,17.1652835 18.2120794,13.544017 20.6405936,11.0282508 C16.5040254,13.8767189 13.9943415,18.7982085 14.5556478,24.1342879 C15.3735452,31.9108708 22.3610851,37.5573323 30.1618784,36.7380031 C37.9622147,35.9182246 43.6177392,28.9540173 42.7998421,21.1774381 C42.3388567,16.7944161 39.9075415,13.0966114 36.4865681,10.8455882 L36.4865681,10.8455882 Z" id="path75" fill="#F2F2F2"></path>
            </g>
        </g>
    </g>
</svg>